<?xml version="1.0" standalone="no"?>
<!DOCTYPE svg PUBLIC "-//W3C//DTD SVG 20010904//EN"
 "http://www.w3.org/TR/2001/REC-SVG-20010904/DTD/svg10.dtd">
<svg version="1.0" xmlns="http://www.w3.org/2000/svg"
 width="949.000000pt" height="949.000000pt" viewBox="0 0 949.000000 949.000000"
 preserveAspectRatio="xMidYMid meet">
<metadata>
Created by potrace 1.14, written by Peter Selinger 2001-2017
</metadata>
<g transform="translate(0.000000,949.000000) scale(0.100000,-0.100000)"
fill="#000000" stroke="none">
<path d="M350 5158 c-66 -12 -160 -61 -209 -110 -124 -125 -157 -370 -76 -554
29 -66 95 -138 160 -175 49 -28 53 -29 205 -29 153 0 156 1 206 30 118 67 170
169 173 336 l2 91 -183 -1 -182 -1 -1 -63 c-1 -35 2 -65 7 -68 4 -3 46 -5 93
-5 98 0 101 -5 64 -84 -29 -62 -98 -96 -185 -91 -73 5 -112 23 -153 73 -47 56
-61 110 -58 221 3 109 22 164 75 218 90 90 265 64 313 -46 l14 -31 93 2 94 2
-6 30 c-22 110 -127 213 -251 245 -57 15 -143 20 -195 10z"/>
<path d="M1297 5164 c-1 -1 -20 -5 -41 -8 -129 -20 -252 -129 -295 -258 -26
-79 -34 -192 -19 -284 19 -126 107 -253 209 -302 41 -20 61 -22 195 -22 146 0
150 1 199 29 96 55 169 157 194 271 18 78 7 246 -19 315 -48 125 -133 206
-253 240 -48 14 -162 27 -170 19z m129 -180 c93 -39 140 -140 136 -292 -5
-163 -97 -265 -232 -257 -68 3 -108 23 -148 70 -37 46 -54 101 -58 194 -4 90
9 152 44 209 50 80 166 114 258 76z"/>
<path d="M2202 5158 c-100 -15 -202 -83 -264 -177 -36 -53 -61 -153 -64 -250
-4 -157 43 -280 138 -366 72 -66 104 -75 269 -75 136 0 148 2 196 25 130 65
213 220 213 399 0 299 -207 487 -488 444z m174 -178 c142 -69 172 -364 50
-486 -85 -86 -225 -82 -300 7 -49 58 -60 95 -60 214 -1 125 16 177 72 230 61
57 161 72 238 35z"/>
<path d="M5160 5156 c-229 -40 -390 -257 -392 -531 -1 -117 25 -189 92 -256
71 -71 98 -79 267 -79 142 0 146 1 202 30 162 87 260 258 266 465 5 169 -51
277 -178 341 -42 22 -69 28 -167 38 -14 2 -54 -2 -90 -8z m177 -182 c15 -11
38 -40 51 -65 21 -39 23 -54 19 -131 -12 -201 -117 -335 -268 -344 -116 -6
-182 59 -186 183 -4 159 66 301 177 358 60 31 164 30 207 -1z"/>
<path d="M6094 5154 c-221 -45 -373 -241 -388 -496 -6 -124 21 -211 90 -288
62 -69 99 -80 266 -80 141 0 146 1 204 30 166 82 275 292 268 513 -3 90 -39
180 -94 235 -80 80 -214 114 -346 86z m183 -181 c54 -40 68 -78 67 -183 -2
-151 -55 -261 -158 -324 -40 -25 -58 -30 -114 -30 -125 -1 -185 65 -181 199 5
163 75 292 189 345 59 27 156 24 197 -7z"/>
<path d="M9075 5150 c-133 -31 -219 -93 -297 -214 -60 -93 -83 -179 -83 -316
0 -103 3 -121 26 -170 29 -62 76 -113 131 -141 32 -16 59 -19 188 -19 146 0
152 1 208 29 135 68 208 188 237 387 l6 41 -183 -1 -182 -1 -12 -65 c-6 -36
-10 -66 -9 -68 2 -2 44 -3 95 -3 101 1 101 1 64 -71 -48 -93 -215 -136 -308
-79 -112 70 -103 319 16 452 53 59 111 84 195 84 66 0 74 -2 103 -30 17 -16
34 -43 38 -60 l8 -30 87 -3 87 -3 0 51 c0 83 -35 142 -116 193 -80 50 -188 64
-299 37z"/>
<path d="M2848 5150 l-22 -6 -1 -427 0 -428 230 3 230 3 59 29 c99 49 168 132
196 236 20 74 21 82 21 163 -1 95 -15 155 -53 229 -51 96 -143 164 -257 189
-53 11 -363 18 -403 9z m388 -174 c61 -21 106 -67 121 -121 38 -145 20 -284
-46 -352 -42 -44 -81 -56 -193 -61 l-108 -5 0 275 c0 151 2 277 5 280 11 10
182 -1 221 -16z"/>
<path d="M4083 5150 c-10 -3 -19 -9 -20 -15 -1 -5 -4 -28 -7 -50 -4 -23 -8
-52 -11 -65 -3 -13 -7 -42 -10 -65 -3 -22 -8 -47 -10 -55 -2 -8 -7 -35 -10
-60 -3 -25 -8 -52 -10 -60 -2 -8 -7 -35 -10 -60 -4 -25 -21 -132 -39 -237
l-33 -193 247 0 247 0 61 31 c35 17 77 49 97 72 35 41 65 117 65 166 0 81 -55
154 -127 167 l-37 7 47 21 c122 56 182 188 132 291 -21 45 -92 92 -151 101
-53 8 -395 11 -421 4z m347 -160 c50 -21 63 -81 30 -135 -34 -55 -81 -69 -223
-66 -41 1 -48 4 -43 19 3 9 7 33 10 52 3 19 9 56 14 83 5 26 7 47 3 48 -3 1 5
4 18 8 36 10 159 4 191 -9z m-24 -351 c56 -34 59 -115 6 -164 -37 -34 -80 -45
-188 -45 l-91 0 9 53 c4 28 10 63 12 77 2 14 7 42 11 63 l7 37 100 0 c84 0
106 -3 134 -21z"/>
<path d="M6735 5130 c-8 -39 -44 -251 -49 -290 -4 -31 -81 -490 -86 -515 -7
-32 1 -35 90 -35 50 0 90 1 90 3 0 1 5 29 11 62 10 58 16 93 24 144 4 25 17
42 77 103 l36 37 87 -175 87 -174 109 0 109 0 -12 28 c-21 47 -210 416 -219
428 -6 7 57 79 180 205 105 106 188 195 186 198 -3 2 -51 4 -107 4 l-102 -1
-188 -192 c-104 -106 -190 -191 -193 -189 -2 3 10 87 26 188 17 101 28 186 25
189 -3 3 -44 5 -91 6 -82 1 -85 0 -90 -24z"/>
<path d="M7565 5150 c-2 -3 -6 -27 -10 -55 -4 -27 -9 -57 -10 -65 -2 -8 -6
-35 -10 -60 -4 -25 -9 -54 -11 -65 -5 -25 -11 -59 -18 -105 -3 -19 -7 -44 -10
-55 -2 -11 -7 -40 -10 -65 -6 -44 -10 -69 -21 -120 -3 -14 -7 -43 -10 -65 -3
-22 -7 -51 -10 -65 -3 -14 -8 -41 -10 -60 -3 -19 -8 -45 -10 -57 -5 -23 -4
-23 88 -23 l94 0 18 108 c9 59 19 116 21 127 3 20 77 465 88 535 3 19 8 47 11
63 3 15 2 27 -2 28 -48 3 -176 3 -178 -1z"/>
<path d="M7923 5152 c-16 -2 -24 -12 -27 -35 -3 -18 -12 -70 -21 -117 -8 -47
-17 -103 -20 -125 -3 -22 -8 -50 -10 -61 -3 -12 -9 -50 -15 -85 -5 -35 -12
-80 -15 -99 -35 -205 -44 -261 -50 -298 l-6 -43 93 3 92 3 28 165 c15 91 29
176 31 190 3 14 10 60 17 103 7 43 16 74 20 70 4 -4 39 -69 78 -143 38 -74
100 -191 135 -260 l66 -125 85 -3 c47 -1 86 1 86 5 0 8 4 32 36 218 9 50 17
97 18 105 7 46 19 124 32 195 7 44 16 96 19 115 10 70 23 146 30 183 7 36 6
37 -21 38 -16 0 -53 1 -83 2 -30 1 -59 -2 -66 -8 -6 -5 -28 -111 -48 -235 -21
-124 -39 -236 -41 -250 -3 -14 -5 -32 -5 -40 -2 -29 -28 13 -122 195 -51 99
-111 216 -135 259 l-42 79 -58 1 c-33 1 -69 0 -81 -2z"/>
</g>
</svg>
