<svg width="238" height="24" viewBox="0 0 238 24" fill="none" xmlns="http://www.w3.org/2000/svg">
<path d="M15.3636 8.23438C15.2145 7.71591 15.005 7.25781 14.7351 6.86008C14.4652 6.45526 14.1349 6.11435 13.7443 5.83736C13.3608 5.55327 12.9205 5.33665 12.4233 5.1875C11.9332 5.03835 11.3899 4.96378 10.7933 4.96378C9.67827 4.96378 8.69815 5.24077 7.85298 5.79474C7.01491 6.34872 6.36151 7.15483 5.89276 8.21307C5.42401 9.2642 5.18963 10.5497 5.18963 12.0696C5.18963 13.5895 5.42045 14.8821 5.8821 15.9474C6.34375 17.0128 6.99716 17.826 7.84233 18.3871C8.6875 18.9411 9.68537 19.218 10.8359 19.218C11.88 19.218 12.7713 19.0334 13.5099 18.6641C14.2557 18.2876 14.8239 17.7585 15.2145 17.0767C15.6122 16.3949 15.8111 15.5888 15.8111 14.6584L16.7486 14.7969H11.1236V11.3239H20.2536V14.0724C20.2536 15.9901 19.8487 17.6378 19.0391 19.0156C18.2294 20.3864 17.1143 21.4446 15.6939 22.1903C14.2734 22.929 12.647 23.2983 10.8146 23.2983C8.76918 23.2983 6.9723 22.8473 5.42401 21.9453C3.87571 21.0362 2.66832 19.7472 1.80185 18.0781C0.942472 16.402 0.512784 14.4134 0.512784 12.1122C0.512784 10.3437 0.768466 8.76705 1.27983 7.3821C1.7983 5.99006 2.52273 4.81108 3.45312 3.84517C4.38352 2.87926 5.46662 2.14418 6.70241 1.63991C7.93821 1.13565 9.27699 0.883522 10.7188 0.883522C11.9545 0.883522 13.1051 1.06463 14.1705 1.42685C15.2358 1.78196 16.1804 2.28622 17.0043 2.93963C17.8352 3.59304 18.5135 4.37074 19.0391 5.27273C19.5646 6.16761 19.902 7.15483 20.0511 8.23438H15.3636ZM43.7683 12.0909C43.7683 14.4702 43.3173 16.4943 42.4153 18.1634C41.5204 19.8324 40.2988 21.1072 38.7505 21.9879C37.2093 22.8615 35.4764 23.2983 33.5517 23.2983C31.6127 23.2983 29.8727 22.858 28.3315 21.9773C26.7903 21.0966 25.5723 19.8217 24.6774 18.1527C23.7825 16.4837 23.335 14.4631 23.335 12.0909C23.335 9.71165 23.7825 7.6875 24.6774 6.01847C25.5723 4.34943 26.7903 3.07812 28.3315 2.20455C29.8727 1.32386 31.6127 0.883522 33.5517 0.883522C35.4764 0.883522 37.2093 1.32386 38.7505 2.20455C40.2988 3.07812 41.5204 4.34943 42.4153 6.01847C43.3173 7.6875 43.7683 9.71165 43.7683 12.0909ZM39.0914 12.0909C39.0914 10.5497 38.8606 9.25 38.399 8.19176C37.9444 7.13352 37.3017 6.33097 36.4707 5.78409C35.6397 5.23722 34.6667 4.96378 33.5517 4.96378C32.4366 4.96378 31.4636 5.23722 30.6326 5.78409C29.8017 6.33097 29.1554 7.13352 28.6937 8.19176C28.2392 9.25 28.0119 10.5497 28.0119 12.0909C28.0119 13.6321 28.2392 14.9318 28.6937 15.9901C29.1554 17.0483 29.8017 17.8509 30.6326 18.3977C31.4636 18.9446 32.4366 19.218 33.5517 19.218C34.6667 19.218 35.6397 18.9446 36.4707 18.3977C37.3017 17.8509 37.9444 17.0483 38.399 15.9901C38.8606 14.9318 39.0914 13.6321 39.0914 12.0909ZM67.2351 12.0909C67.2351 14.4702 66.7841 16.4943 65.8821 18.1634C64.9872 19.8324 63.7656 21.1072 62.2173 21.9879C60.6761 22.8615 58.9432 23.2983 57.0185 23.2983C55.0795 23.2983 53.3395 22.858 51.7983 21.9773C50.2571 21.0966 49.0391 19.8217 48.1442 18.1527C47.2493 16.4837 46.8018 14.4631 46.8018 12.0909C46.8018 9.71165 47.2493 7.6875 48.1442 6.01847C49.0391 4.34943 50.2571 3.07812 51.7983 2.20455C53.3395 1.32386 55.0795 0.883522 57.0185 0.883522C58.9432 0.883522 60.6761 1.32386 62.2173 2.20455C63.7656 3.07812 64.9872 4.34943 65.8821 6.01847C66.7841 7.6875 67.2351 9.71165 67.2351 12.0909ZM62.5582 12.0909C62.5582 10.5497 62.3274 9.25 61.8658 8.19176C61.4112 7.13352 60.7685 6.33097 59.9375 5.78409C59.1065 5.23722 58.1335 4.96378 57.0185 4.96378C55.9034 4.96378 54.9304 5.23722 54.0994 5.78409C53.2685 6.33097 52.6222 7.13352 52.1605 8.19176C51.706 9.25 51.4787 10.5497 51.4787 12.0909C51.4787 13.6321 51.706 14.9318 52.1605 15.9901C52.6222 17.0483 53.2685 17.8509 54.0994 18.3977C54.9304 18.9446 55.9034 19.218 57.0185 19.218C58.1335 19.218 59.1065 18.9446 59.9375 18.3977C60.7685 17.8509 61.4112 17.0483 61.8658 15.9901C62.3274 14.9318 62.5582 13.6321 62.5582 12.0909ZM78.3865 23H70.6522V1.18182H78.4505C80.6451 1.18182 82.5343 1.61861 84.1181 2.49219C85.7019 3.35866 86.9199 4.60511 87.7722 6.23153C88.6316 7.85795 89.0613 9.80398 89.0613 12.0696C89.0613 14.3423 88.6316 16.2955 87.7722 17.929C86.9199 19.5625 85.6948 20.8161 84.0968 21.6896C82.5059 22.5632 80.6025 23 78.3865 23ZM75.2651 19.0476H78.1948C79.5584 19.0476 80.7054 18.8061 81.6358 18.3232C82.5733 17.8331 83.2765 17.0767 83.7452 16.054C84.2211 15.0241 84.459 13.696 84.459 12.0696C84.459 10.4574 84.2211 9.13991 83.7452 8.11719C83.2765 7.09446 82.5769 6.34162 81.6465 5.85866C80.7161 5.37571 79.5691 5.13423 78.2054 5.13423H75.2651V19.0476Z" fill="#FA6900"/>
<path d="M98.0581 23L101.68 1.18182H110.416C112.021 1.18182 113.321 1.41974 114.315 1.8956C115.317 2.37145 116.016 3.03196 116.414 3.87713C116.812 4.7152 116.918 5.68111 116.733 6.77486C116.584 7.62713 116.282 8.37287 115.828 9.01207C115.381 9.65128 114.827 10.1768 114.166 10.5888C113.506 11.0007 112.788 11.2919 112.014 11.4624L111.971 11.6754C112.795 11.7109 113.537 11.9453 114.198 12.3786C114.858 12.8047 115.352 13.4084 115.679 14.1896C116.006 14.9709 116.08 15.8977 115.903 16.9702C115.711 18.1278 115.253 19.1612 114.528 20.0703C113.804 20.9723 112.838 21.6861 111.631 22.2116C110.43 22.7372 109.013 23 107.38 23H98.0581ZM103.31 19.2287H107.071C108.349 19.2287 109.326 18.9801 110.001 18.483C110.675 17.9858 111.08 17.3288 111.215 16.5121C111.307 15.9084 111.247 15.3757 111.034 14.9141C110.828 14.4524 110.476 14.0902 109.979 13.8274C109.489 13.5646 108.868 13.4332 108.115 13.4332H104.258L103.31 19.2287ZM104.791 10.3118H108.211C108.836 10.3118 109.415 10.2017 109.947 9.98153C110.487 9.75426 110.931 9.43466 111.279 9.02273C111.634 8.60369 111.858 8.11009 111.95 7.5419C112.078 6.74645 111.9 6.1108 111.417 5.63494C110.942 5.15199 110.196 4.91051 109.18 4.91051H105.686L104.791 10.3118ZM139.71 12.3892C139.313 14.7187 138.542 16.6967 137.398 18.3232C136.262 19.9496 134.874 21.1854 133.233 22.0305C131.599 22.8757 129.838 23.2983 127.949 23.2983C125.967 23.2983 124.259 22.8473 122.825 21.9453C121.397 21.0433 120.364 19.7401 119.724 18.0355C119.085 16.3239 118.964 14.2607 119.362 11.8459C119.746 9.50923 120.509 7.5277 121.653 5.90128C122.796 4.26776 124.192 3.02486 125.839 2.17258C127.487 1.31321 129.259 0.883522 131.156 0.883522C133.123 0.883522 134.82 1.33807 136.248 2.24716C137.683 3.15625 138.716 4.47017 139.348 6.18892C139.987 7.90057 140.108 9.96733 139.71 12.3892ZM135.119 11.8459C135.367 10.3473 135.357 9.0902 135.087 8.07457C134.824 7.05185 134.341 6.2777 133.638 5.75213C132.935 5.22656 132.047 4.96378 130.974 4.96378C129.81 4.96378 128.741 5.25497 127.768 5.83736C126.802 6.41974 125.985 7.26491 125.317 8.37287C124.657 9.47372 124.199 10.8125 123.943 12.3892C123.688 13.8949 123.695 15.152 123.964 16.1605C124.241 17.169 124.735 17.9325 125.445 18.451C126.163 18.9624 127.054 19.218 128.119 19.218C129.277 19.218 130.335 18.9339 131.294 18.3658C132.26 17.7905 133.073 16.956 133.734 15.8622C134.394 14.7614 134.856 13.4226 135.119 11.8459ZM163.177 12.3892C162.779 14.7187 162.009 16.6967 160.865 18.3232C159.729 19.9496 158.34 21.1854 156.7 22.0305C155.066 22.8757 153.305 23.2983 151.416 23.2983C149.434 23.2983 147.726 22.8473 146.291 21.9453C144.864 21.0433 143.83 19.7401 143.191 18.0355C142.552 16.3239 142.431 14.2607 142.829 11.8459C143.213 9.50923 143.976 7.5277 145.119 5.90128C146.263 4.26776 147.659 3.02486 149.306 2.17258C150.954 1.31321 152.726 0.883522 154.622 0.883522C156.59 0.883522 158.287 1.33807 159.715 2.24716C161.149 3.15625 162.183 4.47017 162.815 6.18892C163.454 7.90057 163.575 9.96733 163.177 12.3892ZM158.585 11.8459C158.834 10.3473 158.823 9.0902 158.553 8.07457C158.291 7.05185 157.808 6.2777 157.105 5.75213C156.401 5.22656 155.514 4.96378 154.441 4.96378C153.276 4.96378 152.208 5.25497 151.235 5.83736C150.269 6.41974 149.452 7.26491 148.784 8.37287C148.124 9.47372 147.666 10.8125 147.41 12.3892C147.154 13.8949 147.161 15.152 147.431 16.1605C147.708 17.169 148.202 17.9325 148.912 18.451C149.629 18.9624 150.521 19.218 151.586 19.218C152.744 19.218 153.802 18.9339 154.761 18.3658C155.727 17.7905 156.54 16.956 157.2 15.8622C157.861 14.7614 158.323 13.4226 158.585 11.8459ZM164.826 23L168.448 1.18182H173.061L171.473 10.8018H171.761L181.2 1.18182H186.729L177.045 10.951L183.203 23H177.684L173.231 14.0298L170.483 16.821L169.439 23H164.826ZM193.744 1.18182L190.122 23H185.509L189.131 1.18182H193.744ZM215.789 1.18182L212.167 23H208.182L200.991 9.26776H200.821L198.53 23H193.917L197.54 1.18182H201.588L208.747 14.9034H208.928L211.197 1.18182H215.789ZM232.896 8.23438C232.839 7.71591 232.718 7.25781 232.533 6.86008C232.356 6.45526 232.111 6.11435 231.798 5.83736C231.486 5.55327 231.106 5.33665 230.658 5.1875C230.211 5.03835 229.692 4.96378 229.103 4.96378C227.988 4.96378 226.944 5.24077 225.971 5.79474C225.005 6.34872 224.181 7.15483 223.499 8.21307C222.817 9.2642 222.352 10.5497 222.104 12.0696C221.848 13.5895 221.848 14.8821 222.104 15.9474C222.366 17.0128 222.86 17.826 223.585 18.3871C224.316 18.9411 225.257 19.218 226.408 19.218C227.452 19.218 228.389 19.0334 229.22 18.6641C230.051 18.2876 230.729 17.7585 231.255 17.0767C231.788 16.3949 232.129 15.5888 232.278 14.6584L233.194 14.7969H227.58L228.155 11.3239H237.285L236.816 14.0724C236.511 15.9901 235.839 17.6378 234.803 19.0156C233.766 20.3935 232.473 21.4517 230.925 22.1903C229.384 22.929 227.693 23.2983 225.854 23.2983C223.808 23.2983 222.086 22.8473 220.687 21.9453C219.295 21.0362 218.304 19.7472 217.714 18.0781C217.132 16.402 217.029 14.4134 217.406 12.1122C217.697 10.3437 218.215 8.76705 218.961 7.3821C219.714 5.99006 220.634 4.81108 221.72 3.84517C222.807 2.87926 224.011 2.14418 225.332 1.63991C226.66 1.13565 228.041 0.883522 229.476 0.883522C230.712 0.883522 231.83 1.06463 232.832 1.42685C233.84 1.78196 234.703 2.28622 235.42 2.93963C236.145 3.59304 236.692 4.37074 237.061 5.27273C237.438 6.16761 237.612 7.15483 237.583 8.23438H232.896Z" fill="black"/>
</svg>
