<svg width="19" height="19" viewBox="0 0 19 19" fill="none" xmlns="http://www.w3.org/2000/svg">
<g clip-path="url(#clip0_1723_767)">
<path fill-rule="evenodd" clip-rule="evenodd" d="M17.4001 1.77389C17.6059 1.97762 17.6756 2.28004 17.5795 2.55198L12.2761 17.552C12.1734 17.8422 11.9022 18.0411 11.5918 18.0536C11.2815 18.0661 10.9948 17.8898 10.8686 17.6088L7.95644 11.1224L1.40403 8.23958C1.12016 8.11469 0.942072 7.83091 0.954735 7.52365C0.967398 7.21639 1.16825 6.94791 1.46145 6.84633L16.6141 1.59633C16.8888 1.50115 17.1943 1.57016 17.4001 1.77389ZM9.43409 10.7203L11.4772 15.2709L15.0525 5.15848L9.43409 10.7203ZM13.9811 4.09782L3.76574 7.63717L8.36264 9.65966L13.9811 4.09782Z" fill="#FF5722"/>
</g>
<defs>
<clipPath id="clip0_1723_767">
<rect width="18.1832" height="18" fill="white" transform="translate(0.196533 0.804199)"/>
</clipPath>
</defs>
</svg>
